<?xml version="1.0" encoding="UTF-8"?><svg id="Layer_3" xmlns="http://www.w3.org/2000/svg" viewBox="0 0 80 80"><title>clothes-hanger</title><path class="cls-1" d="M77.87885,55.12608l-34.79321-20.65123c1.28055-1.47692,2.22647-3.21042,2.47233-5.38983,.35841-3.17943-.68399-6.49888-2.78887-8.87977-1.89453-2.14374-4.44357-3.34088-7.1775-3.37103-4.44491,.00469-8.05644,2.52023-10.20419,7.23512-.47095,1.03435-.01407,2.25427,1.02029,2.7259,1.03569,.46961,2.2536,.01407,2.7259-1.02029,1.47181-3.23102,3.60684-4.85557,6.4138-4.82475,1.55421,.01675,3.02401,.72016,4.13808,1.98028,1.34587,1.52339,2.01243,3.65172,1.78198,5.69363-.26328,2.33533-1.97492,3.97663-4.65191,5.86781-.05544,.03919-.09999,.08726-.1504,.13072L2.12115,55.12608c-1.69556,1.00622-2.48339,2.9597-1.96219,4.86093,.52187,1.90123,2.19666,3.17876,4.16823,3.17876H75.67281c1.9709,0,3.64636-1.27753,4.16823-3.17876,.5212-1.90123-.26663-3.85471-1.96219-4.86093Zm-2.20604,3.92371H4.32719c-.07704,0-.15676,0-.19897-.15207-.04153-.1514,.02747-.19227,.09379-.23179l35.67247-21.17343,.00067-.00067c.03216-.01876,.06833-.02881,.10451-.02881,.03685,0,.07302,.01005,.10585,.02948l35.67247,21.17343c.06632,.03953,.13532,.08039,.09379,.23179-.0422,.15207-.12193,.15207-.19897,.15207Z" fill="currentColor"/></svg>